<mxfile host="app.diagrams.net" modified="2023-07-30T16:29:52.247Z" agent="Mozilla/5.0 (Windows NT 10.0; Win64; x64) AppleWebKit/537.36 (KHTML, like Gecko) Chrome/115.0.0.0 Safari/537.36" etag="zheao4kM0K64UxFIJOg1" version="21.6.6" type="device">
  <diagram name="Page-1" id="OFnLxNuXG3uWwzgsYS-9">
    <mxGraphModel dx="1434" dy="693" grid="1" gridSize="10" guides="1" tooltips="1" connect="1" arrows="1" fold="1" page="1" pageScale="1" pageWidth="850" pageHeight="1100" math="0" shadow="0">
      <root>
        <mxCell id="0" />
        <mxCell id="1" parent="0" />
        <mxCell id="or5kgg-bn_aKFMkTOFsL-1" value="Autoturism" style="swimlane;fontStyle=1;align=center;verticalAlign=top;childLayout=stackLayout;horizontal=1;startSize=26;horizontalStack=0;resizeParent=1;resizeParentMax=0;resizeLast=0;collapsible=1;marginBottom=0;whiteSpace=wrap;html=1;" parent="1" vertex="1">
          <mxGeometry x="290" y="10" width="170" height="200" as="geometry" />
        </mxCell>
        <mxCell id="or5kgg-bn_aKFMkTOFsL-2" value="- marca: string" style="text;strokeColor=none;fillColor=none;align=left;verticalAlign=top;spacingLeft=4;spacingRight=4;overflow=hidden;rotatable=0;points=[[0,0.5],[1,0.5]];portConstraint=eastwest;whiteSpace=wrap;html=1;" parent="or5kgg-bn_aKFMkTOFsL-1" vertex="1">
          <mxGeometry y="26" width="170" height="24" as="geometry" />
        </mxCell>
        <mxCell id="or5kgg-bn_aKFMkTOFsL-5" value="- model:string" style="text;strokeColor=none;fillColor=none;align=left;verticalAlign=top;spacingLeft=4;spacingRight=4;overflow=hidden;rotatable=0;points=[[0,0.5],[1,0.5]];portConstraint=eastwest;whiteSpace=wrap;html=1;" parent="or5kgg-bn_aKFMkTOFsL-1" vertex="1">
          <mxGeometry y="50" width="170" height="26" as="geometry" />
        </mxCell>
        <mxCell id="or5kgg-bn_aKFMkTOFsL-6" value="- anDeFabricatie:int" style="text;strokeColor=none;fillColor=none;align=left;verticalAlign=top;spacingLeft=4;spacingRight=4;overflow=hidden;rotatable=0;points=[[0,0.5],[1,0.5]];portConstraint=eastwest;whiteSpace=wrap;html=1;" parent="or5kgg-bn_aKFMkTOFsL-1" vertex="1">
          <mxGeometry y="76" width="170" height="26" as="geometry" />
        </mxCell>
        <mxCell id="DwkqmExm7-yPf_dPJCU9-4" value="-motor:Motor" style="text;strokeColor=none;fillColor=none;align=left;verticalAlign=top;spacingLeft=4;spacingRight=4;overflow=hidden;rotatable=0;points=[[0,0.5],[1,0.5]];portConstraint=eastwest;whiteSpace=wrap;html=1;" vertex="1" parent="or5kgg-bn_aKFMkTOFsL-1">
          <mxGeometry y="102" width="170" height="28" as="geometry" />
        </mxCell>
        <mxCell id="DwkqmExm7-yPf_dPJCU9-6" value="-usi:Usi []" style="text;strokeColor=none;fillColor=none;align=left;verticalAlign=top;spacingLeft=4;spacingRight=4;overflow=hidden;rotatable=0;points=[[0,0.5],[1,0.5]];portConstraint=eastwest;whiteSpace=wrap;html=1;" vertex="1" parent="or5kgg-bn_aKFMkTOFsL-1">
          <mxGeometry y="130" width="170" height="26" as="geometry" />
        </mxCell>
        <mxCell id="or5kgg-bn_aKFMkTOFsL-3" value="" style="line;strokeWidth=1;fillColor=none;align=left;verticalAlign=middle;spacingTop=-1;spacingLeft=3;spacingRight=3;rotatable=0;labelPosition=right;points=[];portConstraint=eastwest;strokeColor=inherit;" parent="or5kgg-bn_aKFMkTOFsL-1" vertex="1">
          <mxGeometry y="156" width="170" height="24" as="geometry" />
        </mxCell>
        <mxCell id="or5kgg-bn_aKFMkTOFsL-4" value="+ GetDescription (): string" style="text;strokeColor=none;fillColor=none;align=left;verticalAlign=top;spacingLeft=4;spacingRight=4;overflow=hidden;rotatable=0;points=[[0,0.5],[1,0.5]];portConstraint=eastwest;whiteSpace=wrap;html=1;" parent="or5kgg-bn_aKFMkTOFsL-1" vertex="1">
          <mxGeometry y="180" width="170" height="20" as="geometry" />
        </mxCell>
        <mxCell id="or5kgg-bn_aKFMkTOFsL-7" value="Motor" style="swimlane;fontStyle=1;align=center;verticalAlign=top;childLayout=stackLayout;horizontal=1;startSize=26;horizontalStack=0;resizeParent=1;resizeParentMax=0;resizeLast=0;collapsible=1;marginBottom=0;whiteSpace=wrap;html=1;" parent="1" vertex="1">
          <mxGeometry x="160" y="320" width="160" height="110" as="geometry" />
        </mxCell>
        <mxCell id="or5kgg-bn_aKFMkTOFsL-8" value="+capacitateCilindrica: int&lt;br&gt;+putere:int&lt;br&gt;+tipCombustibil:int" style="text;strokeColor=none;fillColor=none;align=left;verticalAlign=top;spacingLeft=4;spacingRight=4;overflow=hidden;rotatable=0;points=[[0,0.5],[1,0.5]];portConstraint=eastwest;whiteSpace=wrap;html=1;" parent="or5kgg-bn_aKFMkTOFsL-7" vertex="1">
          <mxGeometry y="26" width="160" height="84" as="geometry" />
        </mxCell>
        <mxCell id="or5kgg-bn_aKFMkTOFsL-9" value="" style="line;strokeWidth=1;fillColor=none;align=left;verticalAlign=middle;spacingTop=-1;spacingLeft=3;spacingRight=3;rotatable=0;labelPosition=right;points=[];portConstraint=eastwest;strokeColor=inherit;" parent="or5kgg-bn_aKFMkTOFsL-7" vertex="1">
          <mxGeometry y="110" width="160" as="geometry" />
        </mxCell>
        <mxCell id="or5kgg-bn_aKFMkTOFsL-20" value="&lt;font style=&quot;font-size: 13px;&quot;&gt;1&lt;/font&gt;" style="endArrow=open;html=1;endSize=12;startArrow=diamondThin;startSize=14;startFill=1;edgeStyle=orthogonalEdgeStyle;align=left;verticalAlign=bottom;rounded=0;entryX=1.019;entryY=0.238;entryDx=0;entryDy=0;entryPerimeter=0;" parent="1" edge="1">
          <mxGeometry x="-0.6849" y="10" relative="1" as="geometry">
            <mxPoint x="366.96" y="214" as="sourcePoint" />
            <mxPoint x="319.99999999999994" y="359.99199999999996" as="targetPoint" />
            <mxPoint y="1" as="offset" />
            <Array as="points">
              <mxPoint x="366.96" y="360" />
            </Array>
          </mxGeometry>
        </mxCell>
        <mxCell id="NwikYPZpjBzyCplEQIY7-1" value="Usi" style="swimlane;fontStyle=1;align=center;verticalAlign=top;childLayout=stackLayout;horizontal=1;startSize=26;horizontalStack=0;resizeParent=1;resizeParentMax=0;resizeLast=0;collapsible=1;marginBottom=0;whiteSpace=wrap;html=1;" parent="1" vertex="1">
          <mxGeometry x="440" y="320" width="160" height="110" as="geometry" />
        </mxCell>
        <mxCell id="NwikYPZpjBzyCplEQIY7-2" value="+numarUsi: int" style="text;strokeColor=none;fillColor=none;align=left;verticalAlign=top;spacingLeft=4;spacingRight=4;overflow=hidden;rotatable=0;points=[[0,0.5],[1,0.5]];portConstraint=eastwest;whiteSpace=wrap;html=1;" parent="NwikYPZpjBzyCplEQIY7-1" vertex="1">
          <mxGeometry y="26" width="160" height="84" as="geometry" />
        </mxCell>
        <mxCell id="NwikYPZpjBzyCplEQIY7-3" value="" style="line;strokeWidth=1;fillColor=none;align=left;verticalAlign=middle;spacingTop=-1;spacingLeft=3;spacingRight=3;rotatable=0;labelPosition=right;points=[];portConstraint=eastwest;strokeColor=inherit;" parent="NwikYPZpjBzyCplEQIY7-1" vertex="1">
          <mxGeometry y="110" width="160" as="geometry" />
        </mxCell>
        <mxCell id="NwikYPZpjBzyCplEQIY7-7" value="&lt;font style=&quot;font-size: 13px;&quot;&gt;1&lt;/font&gt;" style="endArrow=open;html=1;endSize=12;startArrow=diamondThin;startSize=14;startFill=1;edgeStyle=orthogonalEdgeStyle;align=left;verticalAlign=bottom;rounded=0;entryX=0.156;entryY=-0.036;entryDx=0;entryDy=0;entryPerimeter=0;exitX=0.95;exitY=1;exitDx=0;exitDy=0;exitPerimeter=0;" parent="1" target="NwikYPZpjBzyCplEQIY7-1" edge="1" source="or5kgg-bn_aKFMkTOFsL-4">
          <mxGeometry x="-0.5391" y="10" relative="1" as="geometry">
            <mxPoint x="451" y="220" as="sourcePoint" />
            <mxPoint x="580" y="200" as="targetPoint" />
            <mxPoint as="offset" />
          </mxGeometry>
        </mxCell>
        <mxCell id="DwkqmExm7-yPf_dPJCU9-2" value="&lt;span style=&quot;font-size: 16px;&quot;&gt;4&lt;/span&gt;" style="text;strokeColor=none;align=center;fillColor=none;html=1;verticalAlign=middle;whiteSpace=wrap;rounded=0;" vertex="1" parent="1">
          <mxGeometry x="450" y="290" width="60" height="30" as="geometry" />
        </mxCell>
        <mxCell id="DwkqmExm7-yPf_dPJCU9-3" value="&lt;font style=&quot;font-size: 16px;&quot;&gt;1&lt;/font&gt;" style="text;strokeColor=none;align=center;fillColor=none;html=1;verticalAlign=middle;whiteSpace=wrap;rounded=0;" vertex="1" parent="1">
          <mxGeometry x="320" y="340" width="50" height="20" as="geometry" />
        </mxCell>
        <mxCell id="DwkqmExm7-yPf_dPJCU9-5" value="+ item: attribute" style="text;strokeColor=none;fillColor=none;align=left;verticalAlign=top;spacingLeft=4;spacingRight=4;overflow=hidden;rotatable=0;points=[[0,0.5],[1,0.5]];portConstraint=eastwest;whiteSpace=wrap;html=1;" vertex="1" parent="1">
          <mxGeometry x="280" y="360" width="100" height="26" as="geometry" />
        </mxCell>
      </root>
    </mxGraphModel>
  </diagram>
</mxfile>
